<svg xmlns="http://www.w3.org/2000/svg" width="81" height="26" fill="none" xmlns:v="https://vecta.io/nano"><g clip-path="url(#A)"><g fill="#000"><path fill-rule="evenodd" d="M8.974 0h8.053c3.12 0 4.252.325 5.393.935a6.36 6.36 0 0 1 2.646 2.646c.61 1.141.935 2.272.935 5.393v8.053c0 3.12-.325 4.252-.935 5.393a6.36 6.36 0 0 1-2.646 2.646c-1.141.61-2.272.935-5.393.935H8.974c-3.12 0-4.252-.325-5.393-.935a6.36 6.36 0 0 1-2.646-2.646C.325 21.278 0 20.147 0 17.026V8.974c0-3.12.325-4.252.935-5.393A6.36 6.36 0 0 1 3.581.935C4.722.325 5.853 0 8.974 0z"/><path d="M41.43 9.002c1.117 0 2.133.257 3.048.771a5.53 5.53 0 0 1 2.155 2.166c.521.931.782 2.014.782 3.25s-.261 2.319-.782 3.249-1.239 1.653-2.155 2.166a6.13 6.13 0 0 1-3.048.77c-1.653 0-2.911-.521-3.774-1.563v1.385h-3.328V4.625h3.484v5.829c.879-.968 2.084-1.452 3.618-1.452zm-.603 9.514c.893 0 1.627-.302 2.2-.905s.86-1.411.86-2.423-.287-1.82-.86-2.423-1.306-.904-2.2-.904-1.627.301-2.2.904-.86 1.411-.86 2.423.287 1.82.86 2.423 1.306.905 2.2.905zm7.597-9.335h3.484v12.015h-3.484V9.181zm12.712-.179c1.489 0 2.691.447 3.607 1.34s1.373 2.219 1.373 3.975v6.879h-3.484v-6.343c0-.953-.208-1.664-.625-2.133s-1.02-.703-1.809-.703c-.878 0-1.578.272-2.099.815s-.782 1.351-.782 2.423v5.941h-3.484V9.181h3.328v1.407a4.62 4.62 0 0 1 1.72-1.172c.685-.275 1.437-.413 2.256-.413zm19.188-4.377v16.571h-3.328v-1.385c-.864 1.042-2.114 1.563-3.752 1.563-1.131 0-2.155-.253-3.071-.759a5.43 5.43 0 0 1-2.155-2.166c-.521-.938-.782-2.025-.782-3.261s.261-2.323.782-3.261 1.24-1.66 2.155-2.166 1.939-.759 3.071-.759c1.534 0 2.732.484 3.596 1.452V4.625h3.484zm-6.477 13.891c.879 0 1.608-.302 2.189-.905s.871-1.411.871-2.423-.29-1.82-.871-2.423-1.31-.904-2.189-.904c-.893 0-1.63.301-2.211.904s-.871 1.411-.871 2.423.29 1.82.871 2.423 1.318.905 2.211.905z"/></g><path d="M51.887 4.625h-3.47v3.219h3.47V4.625z" fill="#1c274c"/><path fill-rule="evenodd" d="M13.801 6.589a.78.78 0 0 1 .943-.566.78.78 0 0 1 .566.943l-3.111 12.444a.78.78 0 0 1-.943.566.78.78 0 0 1-.566-.943l3.111-12.444zM8.883 9.661L5.544 13l3.339 3.339a.78.78 0 0 1 0 1.1.78.78 0 0 1-1.1 0L3.895 13.55a.78.78 0 0 1 0-1.1l3.889-3.889a.78.78 0 0 1 1.1 0 .78.78 0 0 1 0 1.1zm8.233 6.678L20.456 13l-3.339-3.339a.78.78 0 0 1 0-1.1.78.78 0 0 1 1.1 0l3.889 3.889a.78.78 0 0 1 0 1.1l-3.889 3.889a.78.78 0 0 1-1.1 0 .78.78 0 0 1 0-1.1z" fill="#fff"/></g><defs><clipPath id="A"><path fill="#fff" d="M0 0h81v26H0z"/></clipPath></defs></svg>